<?xml version="1.0" encoding="UTF-8"?>
<svg width="25px" height="32px" viewBox="0 0 25 32" version="1.1" xmlns="http://www.w3.org/2000/svg" xmlns:xlink="http://www.w3.org/1999/xlink">
    <!-- Generator: Sketch 50.2 (55047) - http://www.bohemiancoding.com/sketch -->
    <title>logo</title>
    <desc>Created with Sketch.</desc>
    <defs></defs>
    <g id="Page-1" stroke="none" stroke-width="1" fill="none" fill-rule="evenodd">
        <g id="logo" transform="translate(-12.000000, -9.000000)">
            <g>
                <rect id="Rectangle-7" fill="#FFFFFF" opacity="0" x="0" y="0" width="50" height="50"></rect>
                <path d="M35.4838873,29.8482889 C35.4838873,29.8482889 35.3388375,29.9720742 35.0422067,29.9125358 C35.3046634,30.4055507 35.5165425,30.8812508 35.6705536,31.554248 C35.6506567,30.8214086 35.534313,30.2421237 35.4838873,29.8482889 M18.2258409,26.6227322 C18.2258409,26.6227322 16.8566007,30.4948583 17.8509896,32.9553762 C17.888657,31.8806463 17.8616215,30.8300659 17.9354374,29.7595888 C18.0074308,28.7217666 18.1801236,27.6640477 18.2258409,26.6227322 M31.4256811,37.7849779 C31.4256811,37.7849779 31.685252,39.2655414 31.6913274,39.9516006 C31.6945169,40.3885703 31.3555104,40.4535766 31.2806312,40.595588 C31.2144095,40.722411 31.3447266,40.8474114 31.4859793,40.9112026 C31.6691522,40.9935236 32.0145379,41.0088639 32.1621698,40.9959537 C32.3152695,40.9824361 32.4551553,40.8978368 32.3363815,40.5936135 C32.2776021,40.4424891 32.2809436,40.2836186 32.2669702,40.1217105 L32.2242906,39.6239872 C32.2242906,39.6239872 32.2364414,39.0406014 32.2880822,38.73653 C32.2880822,38.73653 32.3661509,38.0509265 32.3625057,37.489412 C32.3599236,37.0302672 32.3485323,36.5923862 32.4272085,36.0987637 C32.5825865,36.1013458 32.7472295,36.101042 32.9152139,36.0955742 C32.8968359,36.3999494 32.8855964,36.8220345 32.9369335,37.1335482 C33.0506951,37.8281129 32.9176441,38.1526886 32.9261496,38.6935469 L32.9420975,39.6115327 C32.9445277,39.8197654 32.9540964,39.9265398 32.8644845,40.1133569 C32.797959,40.2524824 32.7332561,40.382495 32.6536686,40.5129632 C32.5865355,40.6221677 32.5137828,40.8059471 32.7318892,40.8668525 C32.7318892,40.8668525 33.6580818,41.0952858 33.4671628,40.4228961 C33.4671628,40.4228961 33.3530974,39.8524205 33.4424056,39.5984707 C33.4424056,39.5984707 33.6706882,38.8250783 33.8025241,38.2325795 C33.8769476,37.8950937 33.9050463,37.6045399 33.8857569,37.2670541 C33.856747,36.7539905 34.0098467,36.3999494 34.1703888,35.9420196 C34.5555683,35.8394981 34.9487977,35.7249777 35.3219783,35.5972434 C35.5874727,35.5056574 35.8461322,35.3867324 35.9696145,35.2263431 C36.3702862,34.7064448 35.9951311,33.4283424 35.9951311,33.4283424 C36.6644868,32.7427389 36.320468,29.4748066 36.320468,29.4748066 L36.5335622,29.4163313 C36.3628439,27.5628931 36.00713,25.5206632 34.283391,24.339159 C33.96337,24.106473 34.3275894,23.8871528 34.3275894,23.8871528 C34.7648653,23.8042242 35.0836712,23.2688337 35.1878641,23.0709291 C35.2642621,22.9243612 35.2955503,23.1195319 35.4741667,23.035844 C35.4892033,23.0729036 35.4567,23.2428616 35.4538142,23.2817439 C35.3774162,24.2402827 35.5484383,25.9547472 37,25.7111256 C36.0525435,24.8993065 36.7923737,22.6652474 35.7685192,22.6332 C35.7531788,22.4283087 35.4478907,22.3411274 35.4478907,22.3411274 C35.4418153,21.5750254 35.1732832,21.0938574 34.8736148,20.7954057 C34.4586659,20.3816742 33.9815961,20.2451307 33.4206861,20.3353497 C32.7686452,20.4401495 32.4578892,20.8461349 32.3227119,21.1073751 C32.1890534,21.3666408 32.2622618,21.6020607 32.114478,21.9325599 C31.3585481,23.3087792 32.3767828,23.4643082 32.3767828,23.4643082 C32.5800045,23.6102686 32.4492318,24.106473 32.4492318,24.106473 C32.1207053,24.1256104 30.8673531,24.7238807 30.0625163,25.1236389 C29.4400929,25.4331782 28.8269345,25.9714544 28.1549968,26.0902276 C26.5390959,26.2797786 25.9657313,25.8277723 25.9657313,25.8277723 C25.8753599,25.7500078 25.7927347,25.6610039 25.7148179,25.5637983 C25.706768,25.276586 25.3697359,24.9228485 25.3697359,24.9228485 C25.3370807,24.888219 25.3068557,24.8508556 25.2798202,24.8115177 C25.1656029,24.5472399 25.0750797,24.2708113 25.0041495,24.0072929 C24.9743801,23.8054393 24.9743801,23.6570488 24.9743801,23.6570488 C24.7977383,22.3525187 24.0873737,20.5332543 24.0873737,20.5332543 C23.8698749,20.217184 23.7913505,20.0789698 23.7913505,20.0789698 L23.9886487,19.9404517 L22.9628197,16.3025305 C22.8050115,15.5315682 20.890961,13.8710224 20.890961,13.8710224 C20.6944223,13.6337799 20.7928436,13.4752132 20.7928436,13.4752132 C21.6801537,13.5282206 21.430911,12.6201073 21.6868367,12.5617839 C21.8419109,12.5266987 21.774626,12.4928286 21.7731072,12.340641 C21.7709808,12.1621776 21.8282413,11.7985677 21.8651493,11.5790956 C21.9003865,11.3735968 21.8815528,11.4029103 22.0818887,11.3615979 C22.2255716,11.3322844 22.2137246,11.3272722 22.2337733,11.1778185 C22.3452567,10.3482291 21.918157,9.71107647 21.2759887,9.34047995 C20.2228204,8.73446351 18.4067355,8.87844938 18.1057001,10.2531498 C17.9137179,11.131494 18.2287267,12.3057078 18.2287267,12.3057078 C18.4055205,12.5233573 18.3069473,12.7970519 18.3069473,12.7970519 L17.9522966,12.7970519 C17.7548466,12.7970519 17.1565729,13.4436213 17.1565729,13.4436213 C16.9196328,13.719898 15.4662485,14.0570801 15.4662485,14.0570801 C14.933589,14.0769769 14.7165458,14.5077194 14.7165458,14.5077194 L13.4296271,16.1960599 C13.2122802,16.4629198 13.0930507,17.1371321 13.0930507,17.1371321 L12.0666142,18.2411755 L12.8166206,18.871949 C11.5535478,20.4109878 12.1323802,22.6494515 12.1323802,22.6494515 L12.4226318,23.6380633 C12.5426207,24.0469345 12.5215087,24.3860911 12.5151296,24.8144035 C12.5093579,25.2729407 12.4624256,25.641259 12.7368812,26.0423842 C12.9378246,26.3374944 13.1975473,26.5240078 13.1975473,26.5240078 C13.3946936,26.6822707 13.2958167,26.0300816 13.2958167,26.0300816 C13.4470938,26.1271353 13.3799608,25.8490361 13.3413821,25.6035918 C13.3082713,25.3895875 13.24934,24.9391001 13.4063888,24.7386135 C13.4952413,24.6253081 13.565412,24.6243968 13.6275328,24.7475746 C13.7016525,24.8944463 13.7283842,25.1239427 13.7282323,25.3221511 C13.7279286,25.5387374 13.9053299,25.5808092 13.9671469,25.2840283 C14.0136236,25.0657712 14.0259263,24.7844824 14.0259263,24.7844824 C14.0657201,24.1120927 13.6711237,23.736484 13.6711237,23.736484 C13.4344874,23.4400068 13.3946936,23.0642462 13.3946936,23.0642462 C13.1377048,21.8781855 13.4147424,20.9287597 13.4147424,20.9287597 C13.3946936,20.5731997 14.0657201,19.6044847 14.0657201,19.6044847 C14.2042389,19.4462218 14.5534217,19.0604369 14.5534217,19.0604369 C14.7611999,18.7443666 14.8245358,18.9623199 14.8245358,18.9623199 L14.8608363,20.842186 C14.8608363,20.842186 14.4984395,21.6013013 14.8608363,22.0349296 C14.8608363,22.0349296 14.96913,22.7941968 14.6797897,23.1195319 C14.6797897,23.1195319 14.2095548,23.8786473 14.2457034,24.7459039 L14.5127166,30.8659105 C14.5459794,31.6380878 14.8211944,32.2216255 15.0197076,32.9427699 C15.2163983,33.6610284 15.5487219,34.9324479 15.6568638,35.7187504 L16.1254279,38.8897808 C16.1553492,39.0923938 16.1034047,39.1803346 16.3122461,39.2131415 L16.8796872,39.3032086 C17.0677204,39.3328259 17.0835164,39.2971332 17.0877691,39.4885068 L17.0993124,39.9382348 C17.1038689,40.0835876 17.109033,40.0825244 16.9952714,40.1728953 L16.5282261,40.5447069 C16.2375188,40.7761779 16.3555332,40.9484141 16.7338779,40.9593497 C16.987829,40.9675515 17.735861,40.9790946 17.8333709,40.8477151 C17.8333709,40.8477151 18.1687323,40.5814628 18.4055205,40.8973811 C18.4281513,41.0324059 18.7589561,40.9983839 18.8777299,40.9898784 C19.1008484,40.9727155 19.5024315,40.9136327 19.6802884,40.7032736 C19.809846,40.5506304 19.8036188,40.2793659 19.6146742,40.1879318 C19.5353905,40.1496571 19.5496676,40.1631748 19.5555911,40.0670323 L19.6289514,38.7028118 C19.6289514,38.7028118 20.2244912,38.6066694 20.5840021,38.3499857 C20.9281728,38.1036302 20.8188158,37.8958531 20.7756806,37.5251047 C20.650072,36.4484003 20.3785022,33.8413145 20.6282006,33.3124551 C20.6282006,33.3124551 21.1409632,31.2606566 20.7858569,30.4324341 L21.6541815,25.5004627 C21.6541815,25.5004627 22.0884197,22.8172831 21.2990751,22.2255438 C21.2990751,22.2255438 21.1874399,21.7393637 21.4438212,21.6208943 C21.4438212,21.6208943 21.6017813,20.8891181 21.3453999,20.6719242 C21.3453999,20.6719242 21.2858612,19.8415754 21.5423944,19.4857116 L21.7984719,20.691821 L22.3317389,20.6321306 L22.6077134,21.9173715 C22.7653696,23.0445013 24.3830932,25.199429 24.3830932,25.199429 L24.6511696,26.2923849 C24.6762305,26.3930839 24.7476163,26.5794454 24.9619256,26.5765596 C25.2450386,26.5729144 25.132644,26.7855517 25.5870829,26.7029269 C25.6689487,26.6918394 25.7532447,26.6884979 25.8376925,26.6909281 C26.6583254,26.7165964 27.5670513,27.3157781 27.5670513,27.3157781 C28.265417,27.7240418 30.0122424,27.5200618 30.0122424,27.5200618 C31.7693961,27.6108884 31.386343,29.7128086 31.054475,30.7902724 C30.6858509,31.9851424 30.4751869,33.3639437 30.2983931,34.5878235 C30.1425595,35.6651354 30.7406813,35.9335141 31.1293541,35.9959384 L31.1307211,35.9963941 L31.1352776,35.9966978 L31.1428718,35.9982167 L31.1533519,35.9992798 L31.154567,35.9997355 C31.2340026,36.0109749 31.3034139,36.0141645 31.3535359,36.0135569 C31.2736445,36.6115235 31.255874,37.2186031 31.4256811,37.7849779" id="Fill-1" fill="#1890FF"></path>
            </g>
        </g>
    </g>
</svg>